<svg xmlns="http://www.w3.org/2000/svg" xmlns:xlink="http://www.w3.org/1999/xlink" width="150" zoomAndPan="magnify" viewBox="0 0 112.5 112.499997" height="150" preserveAspectRatio="xMidYMid meet" version="1.0"><defs><clipPath id="48df075d07"><path d="M 20.941406 0 L 100.441406 0 L 100.441406 92.144531 L 20.941406 92.144531 Z M 20.941406 0 " clip-rule="nonzero"/></clipPath><clipPath id="adb67052dc"><path d="M 85 99.105469 L 100.6875 99.105469 L 100.6875 112.003906 L 85 112.003906 Z M 85 99.105469 " clip-rule="nonzero"/></clipPath><clipPath id="d3819d3614"><path d="M 86.011719 101.441406 C 84.792969 103.453125 85.652344 105.40625 86.730469 106.445312 L 93.042969 112.5 L 99.222656 106.464844 C 100.226562 105.351562 100.609375 104.164062 100.394531 102.847656 C 100.101562 101.023438 98.597656 99.609375 96.742188 99.40625 C 95.601562 99.285156 94.503906 99.605469 93.644531 100.320312 C 93.414062 100.511719 93.207031 100.726562 93.027344 100.957031 C 92.8125 100.691406 92.5625 100.449219 92.277344 100.234375 C 91.292969 99.484375 90.035156 99.1875 88.828125 99.417969 C 87.683594 99.640625 86.65625 100.375 86.011719 101.441406 " clip-rule="nonzero"/></clipPath></defs><g clip-path="url(#48df075d07)"><path fill="#ffffff" d="M 94.574219 52.046875 C 92.9375 53.566406 90.859375 54.382812 88.660156 54.382812 C 88.425781 54.382812 88.183594 54.371094 87.941406 54.351562 L 87.03125 54.277344 C 86.460938 54.226562 85.925781 54.507812 85.621094 54.988281 C 85.316406 55.460938 85.296875 56.066406 85.578125 56.566406 C 86.300781 57.855469 86.683594 59.316406 86.683594 60.792969 C 86.683594 63.242188 85.644531 65.582031 83.828125 67.214844 C 82.007812 68.847656 79.570312 69.621094 77.15625 69.363281 L 73.355469 68.9375 C 72.714844 68.859375 72.136719 69.183594 71.835938 69.734375 C 71.542969 70.28125 71.609375 70.960938 72.003906 71.441406 C 73.582031 73.363281 74.453125 75.792969 74.453125 78.289062 C 74.453125 84.21875 69.652344 89.046875 63.75 89.046875 L 61.691406 89.046875 C 62.179688 87.484375 62.175781 85.789062 61.613281 84.179688 C 60.742188 81.65625 58.675781 79.789062 56.082031 79.191406 L 51.03125 78.019531 C 48.617188 77.460938 46.933594 75.332031 46.933594 72.84375 C 46.933594 71.472656 47.5 70.175781 48.472656 69.183594 L 68.230469 70.601562 L 68.445312 67.539062 L 47.066406 66.003906 L 40.519531 65.269531 C 37.203125 64.898438 34.703125 62.09375 34.703125 58.738281 C 34.703125 56.570312 35.757812 54.601562 37.539062 53.371094 L 81.976562 56.769531 L 82.214844 53.707031 L 35.449219 50.132812 L 29.90625 49.6875 C 26.597656 49.417969 24 46.597656 24 43.253906 C 24 39.691406 26.878906 36.800781 30.421875 36.800781 L 88.640625 36.800781 C 93.460938 36.800781 97.386719 40.742188 97.386719 45.585938 C 97.386719 48.074219 96.386719 50.367188 94.574219 52.046875 Z M 41.933594 2.992188 L 49.6875 2.992188 L 44.125 33.726562 L 32.207031 33.726562 Z M 62.222656 2.992188 L 70.0625 2.992188 L 74.226562 33.726562 L 62.222656 33.726562 Z M 47.238281 33.726562 L 52.796875 2.992188 L 59.164062 2.992188 L 59.164062 33.726562 Z M 89.179688 33.726562 L 77.3125 33.726562 L 73.152344 2.992188 L 79.449219 2.992188 Z M 92.613281 34.433594 L 82.023438 0.988281 C 81.820312 0.351562 81.230469 -0.0820312 80.566406 -0.0820312 L 40.816406 -0.0820312 C 40.15625 -0.0820312 39.5625 0.351562 39.359375 0.988281 L 28.957031 33.851562 C 24.425781 34.558594 20.941406 38.5 20.941406 43.253906 C 20.941406 48.1875 24.777344 52.359375 29.667969 52.75 L 33.503906 53.0625 C 32.308594 54.675781 31.644531 56.648438 31.644531 58.738281 C 31.644531 63.660156 35.316406 67.777344 40.183594 68.324219 L 44.902344 68.855469 C 44.234375 70.066406 43.875 71.433594 43.875 72.84375 C 43.875 76.769531 46.53125 80.132812 50.34375 81.015625 L 55.394531 82.1875 C 56.953125 82.546875 58.203125 83.667969 58.726562 85.1875 C 59.253906 86.707031 58.96875 88.367188 57.96875 89.621094 C 57.597656 90.085938 57.535156 90.714844 57.785156 91.25 C 58.042969 91.785156 58.574219 92.121094 59.164062 92.121094 L 63.75 92.121094 C 71.339844 92.121094 77.511719 85.914062 77.511719 78.289062 C 77.511719 76.226562 77.042969 74.191406 76.171875 72.347656 L 76.816406 72.414062 C 80.109375 72.792969 83.398438 71.722656 85.863281 69.507812 C 88.332031 67.292969 89.742188 64.113281 89.742188 60.792969 C 89.742188 59.652344 89.574219 58.523438 89.25 57.4375 C 91.988281 57.292969 94.613281 56.195312 96.644531 54.308594 C 99.058594 52.070312 100.441406 48.890625 100.441406 45.585938 C 100.441406 40.449219 97.171875 36.078125 92.613281 34.433594 " fill-opacity="1" fill-rule="nonzero"/></g><path fill="#ffffff" d="M 68.335938 81.363281 L 71.394531 81.363281 L 71.394531 78.289062 L 68.335938 78.289062 L 68.335938 81.363281 " fill-opacity="1" fill-rule="nonzero"/><path fill="#ffffff" d="M 59.164062 76.753906 L 62.222656 76.753906 L 62.222656 73.679688 L 59.164062 73.679688 L 59.164062 76.753906 " fill-opacity="1" fill-rule="nonzero"/><path fill="#ffffff" d="M 54.578125 64.460938 L 57.636719 64.460938 L 57.636719 61.386719 L 54.578125 61.386719 L 54.578125 64.460938 " fill-opacity="1" fill-rule="nonzero"/><path fill="#ffffff" d="M 77.511719 62.921875 L 80.566406 62.921875 L 80.566406 59.851562 L 77.511719 59.851562 L 77.511719 62.921875 " fill-opacity="1" fill-rule="nonzero"/><path fill="#ffffff" d="M 40.816406 59.851562 L 43.875 59.851562 L 43.875 56.777344 L 40.816406 56.777344 L 40.816406 59.851562 " fill-opacity="1" fill-rule="nonzero"/><path fill="#ffffff" d="M 88.210938 49.09375 L 91.269531 49.09375 L 91.269531 46.019531 L 88.210938 46.019531 L 88.210938 49.09375 " fill-opacity="1" fill-rule="nonzero"/><path fill="#ffffff" d="M 66.808594 49.09375 L 69.867188 49.09375 L 69.867188 46.019531 L 66.808594 46.019531 L 66.808594 49.09375 " fill-opacity="1" fill-rule="nonzero"/><path fill="#ffffff" d="M 80.566406 42.945312 L 83.625 42.945312 L 83.625 39.871094 L 80.566406 39.871094 L 80.566406 42.945312 " fill-opacity="1" fill-rule="nonzero"/><path fill="#ffffff" d="M 51.519531 44.484375 L 54.578125 44.484375 L 54.578125 41.410156 L 51.519531 41.410156 L 51.519531 44.484375 " fill-opacity="1" fill-rule="nonzero"/><path fill="#ffffff" d="M 31.644531 47.554688 L 34.703125 47.554688 L 34.703125 44.484375 L 31.644531 44.484375 L 31.644531 47.554688 " fill-opacity="1" fill-rule="nonzero"/><g clip-path="url(#adb67052dc)"><g clip-path="url(#d3819d3614)"><path fill="#ffffff" d="M 85.414062 99.339844 L 100.453125 99.339844 L 100.453125 112.5 L 85.414062 112.5 Z M 85.414062 99.339844 " fill-opacity="1" fill-rule="nonzero"/></g></g></svg>