<svg xmlns="http://www.w3.org/2000/svg" xmlns:xlink="http://www.w3.org/1999/xlink" width="200" zoomAndPan="magnify" viewBox="0 0 150 54" height="72" preserveAspectRatio="xMidYMid meet" version="1.0"><defs><clipPath id="316ddf2461"><path d="M 1.363281 0 L 148.636719 0 L 148.636719 53.019531 L 1.363281 53.019531 Z M 1.363281 0 " clip-rule="nonzero"/></clipPath><clipPath id="6bbf4414d7"><path d="M 62.675781 9.121094 L 86.972656 9.121094 L 86.972656 37.105469 L 62.675781 37.105469 Z M 62.675781 9.121094 " clip-rule="nonzero"/></clipPath><clipPath id="a420a0fc51"><path d="M 79.753906 35.328125 L 83.925781 35.328125 L 83.925781 38.824219 L 79.753906 38.824219 Z M 79.753906 35.328125 " clip-rule="nonzero"/></clipPath><clipPath id="f4ed7e78b7"><path d="M 80.09375 35.9375 C 79.777344 36.460938 80 36.972656 80.28125 37.242188 L 81.929688 38.824219 L 83.542969 37.25 C 83.804688 36.957031 83.90625 36.648438 83.851562 36.304688 C 83.773438 35.828125 83.382812 35.457031 82.898438 35.40625 C 82.597656 35.371094 82.3125 35.457031 82.085938 35.644531 C 82.027344 35.695312 81.972656 35.75 81.925781 35.8125 C 81.871094 35.742188 81.804688 35.679688 81.730469 35.621094 C 81.472656 35.425781 81.144531 35.347656 80.828125 35.410156 C 80.53125 35.464844 80.261719 35.660156 80.09375 35.9375 " clip-rule="nonzero"/></clipPath></defs><g clip-path="url(#316ddf2461)"><path fill="#ffffff" d="M 1.363281 0 L 148.636719 0 L 148.636719 60.382812 L 1.363281 60.382812 Z M 1.363281 0 " fill-opacity="1" fill-rule="nonzero"/><path fill="#ffffff" d="M 1.363281 0 L 148.636719 0 L 148.636719 53.019531 L 1.363281 53.019531 Z M 1.363281 0 " fill-opacity="1" fill-rule="nonzero"/><path fill="#ffffff" d="M 1.363281 0 L 148.636719 0 L 148.636719 53.019531 L 1.363281 53.019531 Z M 1.363281 0 " fill-opacity="1" fill-rule="nonzero"/></g><g clip-path="url(#6bbf4414d7)"><path fill="#a6a6a6" d="M 85.179688 24.941406 C 84.679688 25.402344 84.042969 25.648438 83.371094 25.648438 C 83.300781 25.648438 83.226562 25.644531 83.152344 25.640625 L 82.875 25.617188 C 82.699219 25.601562 82.535156 25.6875 82.441406 25.832031 C 82.351562 25.976562 82.34375 26.160156 82.429688 26.3125 C 82.652344 26.703125 82.769531 27.144531 82.769531 27.59375 C 82.769531 28.335938 82.449219 29.046875 81.894531 29.542969 C 81.339844 30.035156 80.59375 30.273438 79.855469 30.195312 L 78.695312 30.0625 C 78.5 30.039062 78.320312 30.140625 78.230469 30.304688 C 78.140625 30.472656 78.160156 30.679688 78.28125 30.824219 C 78.761719 31.40625 79.03125 32.144531 79.03125 32.902344 C 79.03125 34.699219 77.5625 36.164062 75.757812 36.164062 L 75.128906 36.164062 C 75.277344 35.6875 75.277344 35.175781 75.105469 34.6875 C 74.839844 33.921875 74.207031 33.355469 73.414062 33.171875 L 71.871094 32.820312 C 71.132812 32.648438 70.617188 32.003906 70.617188 31.25 C 70.617188 30.832031 70.792969 30.4375 71.089844 30.140625 L 77.128906 30.570312 L 77.195312 29.640625 L 70.660156 29.175781 L 68.65625 28.953125 C 67.644531 28.839844 66.878906 27.988281 66.878906 26.972656 C 66.878906 26.3125 67.203125 25.71875 67.746094 25.34375 L 81.328125 26.375 L 81.402344 25.445312 L 67.109375 24.359375 L 65.414062 24.226562 C 64.402344 24.144531 63.609375 23.289062 63.609375 22.273438 C 63.609375 21.195312 64.488281 20.316406 65.570312 20.316406 L 83.367188 20.316406 C 84.839844 20.316406 86.039062 21.511719 86.039062 22.984375 C 86.039062 23.738281 85.734375 24.433594 85.179688 24.941406 Z M 69.089844 10.066406 L 71.460938 10.066406 L 69.761719 19.386719 L 66.117188 19.386719 Z M 75.292969 10.066406 L 77.6875 10.066406 L 78.960938 19.386719 L 75.292969 19.386719 Z M 70.710938 19.386719 L 72.410156 10.066406 L 74.355469 10.066406 L 74.355469 19.386719 Z M 83.53125 19.386719 L 79.902344 19.386719 L 78.632812 10.066406 L 80.558594 10.066406 Z M 84.582031 19.601562 L 81.34375 9.457031 C 81.28125 9.265625 81.101562 9.132812 80.898438 9.132812 L 68.75 9.132812 C 68.546875 9.132812 68.367188 9.265625 68.304688 9.457031 L 65.125 19.421875 C 63.738281 19.636719 62.675781 20.832031 62.675781 22.273438 C 62.675781 23.769531 63.847656 25.035156 65.339844 25.15625 L 66.511719 25.25 C 66.148438 25.738281 65.945312 26.335938 65.945312 26.972656 C 65.945312 28.464844 67.066406 29.714844 68.554688 29.878906 L 69.996094 30.039062 C 69.792969 30.40625 69.683594 30.820312 69.683594 31.25 C 69.683594 32.441406 70.496094 33.460938 71.660156 33.726562 L 73.203125 34.082031 C 73.679688 34.191406 74.0625 34.53125 74.222656 34.992188 C 74.382812 35.453125 74.296875 35.957031 73.992188 36.335938 C 73.878906 36.476562 73.859375 36.667969 73.933594 36.832031 C 74.011719 36.992188 74.175781 37.09375 74.355469 37.09375 L 75.757812 37.09375 C 78.078125 37.09375 79.964844 35.210938 79.964844 32.902344 C 79.964844 32.273438 79.820312 31.65625 79.554688 31.097656 L 79.753906 31.117188 C 80.757812 31.234375 81.765625 30.910156 82.519531 30.238281 C 83.273438 29.566406 83.703125 28.601562 83.703125 27.59375 C 83.703125 27.246094 83.652344 26.90625 83.554688 26.578125 C 84.390625 26.53125 85.191406 26.199219 85.8125 25.628906 C 86.550781 24.949219 86.972656 23.984375 86.972656 22.984375 C 86.972656 21.425781 85.972656 20.097656 84.582031 19.601562 " fill-opacity="1" fill-rule="nonzero"/></g><path fill="#a6a6a6" d="M 77.160156 33.832031 L 78.09375 33.832031 L 78.09375 32.902344 L 77.160156 32.902344 L 77.160156 33.832031 " fill-opacity="1" fill-rule="nonzero"/><path fill="#a6a6a6" d="M 74.355469 32.433594 L 75.292969 32.433594 L 75.292969 31.503906 L 74.355469 31.503906 L 74.355469 32.433594 " fill-opacity="1" fill-rule="nonzero"/><path fill="#a6a6a6" d="M 72.953125 28.707031 L 73.890625 28.707031 L 73.890625 27.773438 L 72.953125 27.773438 L 72.953125 28.707031 " fill-opacity="1" fill-rule="nonzero"/><path fill="#a6a6a6" d="M 79.964844 28.238281 L 80.898438 28.238281 L 80.898438 27.308594 L 79.964844 27.308594 L 79.964844 28.238281 " fill-opacity="1" fill-rule="nonzero"/><path fill="#a6a6a6" d="M 68.75 27.308594 L 69.683594 27.308594 L 69.683594 26.375 L 68.75 26.375 L 68.75 27.308594 " fill-opacity="1" fill-rule="nonzero"/><path fill="#a6a6a6" d="M 83.234375 24.046875 L 84.171875 24.046875 L 84.171875 23.113281 L 83.234375 23.113281 L 83.234375 24.046875 " fill-opacity="1" fill-rule="nonzero"/><path fill="#a6a6a6" d="M 76.691406 24.046875 L 77.628906 24.046875 L 77.628906 23.113281 L 76.691406 23.113281 L 76.691406 24.046875 " fill-opacity="1" fill-rule="nonzero"/><path fill="#a6a6a6" d="M 80.898438 22.183594 L 81.832031 22.183594 L 81.832031 21.25 L 80.898438 21.25 L 80.898438 22.183594 " fill-opacity="1" fill-rule="nonzero"/><path fill="#a6a6a6" d="M 72.019531 22.648438 L 72.953125 22.648438 L 72.953125 21.714844 L 72.019531 21.714844 L 72.019531 22.648438 " fill-opacity="1" fill-rule="nonzero"/><path fill="#a6a6a6" d="M 65.945312 23.578125 L 66.878906 23.578125 L 66.878906 22.648438 L 65.945312 22.648438 L 65.945312 23.578125 " fill-opacity="1" fill-rule="nonzero"/><g clip-path="url(#a420a0fc51)"><g clip-path="url(#f4ed7e78b7)"><path fill="#e5afd5" d="M 79.9375 35.386719 L 83.867188 35.386719 L 83.867188 38.824219 L 79.9375 38.824219 Z M 79.9375 35.386719 " fill-opacity="1" fill-rule="nonzero"/></g></g></svg>