<svg xmlns="http://www.w3.org/2000/svg" xmlns:xlink="http://www.w3.org/1999/xlink" width="1080" zoomAndPan="magnify" viewBox="0 0 810 809.999993" height="1080" preserveAspectRatio="xMidYMid meet" version="1.0"><defs><clipPath id="2f35ae0fe5"><path d="M 222.03125 144.652344 L 588.03125 144.652344 L 588.03125 566.902344 L 222.03125 566.902344 Z M 222.03125 144.652344 " clip-rule="nonzero"/></clipPath><clipPath id="d6a0c083c9"><path d="M 480 540 L 541 540 L 541 593.152344 L 480 593.152344 Z M 480 540 " clip-rule="nonzero"/></clipPath><clipPath id="f17a9aa9ba"><path d="M 482.832031 549.035156 C 477.96875 557.050781 481.394531 564.851562 485.703125 568.992188 L 510.886719 593.152344 L 535.535156 569.078125 C 539.542969 564.625 541.078125 559.898438 540.226562 554.640625 C 539.046875 547.363281 533.050781 541.714844 525.640625 540.910156 C 521.097656 540.421875 516.710938 541.707031 513.285156 544.554688 C 512.363281 545.320312 511.539062 546.175781 510.820312 547.105469 C 509.96875 546.046875 508.96875 545.078125 507.839844 544.21875 C 503.898438 541.226562 498.886719 540.035156 494.070312 540.960938 C 489.507812 541.839844 485.414062 544.785156 482.832031 549.035156 " clip-rule="nonzero"/></clipPath></defs><rect x="-81" width="972" fill="#ffffff" y="-80.999999" height="971.999992" fill-opacity="1"/><rect x="-81" width="972" fill="#ffffff" y="-80.999999" height="971.999992" fill-opacity="1"/><rect x="-81" width="972" fill="#ffffff" y="-80.999999" height="971.999992" fill-opacity="1"/><g clip-path="url(#2f35ae0fe5)"><path fill="#a6a6a6" d="M 561.003906 383.363281 C 553.46875 390.3125 543.902344 394.050781 533.785156 394.050781 C 532.710938 394.050781 531.585938 393.996094 530.484375 393.914062 L 526.277344 393.582031 C 523.667969 393.335938 521.191406 394.628906 519.789062 396.824219 C 518.386719 398.996094 518.304688 401.769531 519.597656 404.050781 C 522.925781 409.960938 524.683594 416.636719 524.683594 423.394531 C 524.683594 434.605469 519.898438 445.320312 511.542969 452.792969 C 503.15625 460.269531 491.9375 463.8125 480.832031 462.632812 L 463.316406 460.679688 C 460.375 460.324219 457.707031 461.808594 456.332031 464.335938 C 454.984375 466.835938 455.289062 469.941406 457.101562 472.136719 C 464.363281 480.929688 468.375 492.058594 468.375 503.488281 C 468.375 530.636719 446.269531 552.726562 419.105469 552.726562 L 409.621094 552.726562 C 411.875 545.582031 411.847656 537.808594 409.265625 530.441406 C 405.25 518.902344 395.738281 510.359375 383.804688 507.609375 L 360.542969 502.253906 C 349.4375 499.695312 341.683594 489.941406 341.683594 478.566406 C 341.683594 472.277344 344.296875 466.339844 348.777344 461.808594 L 439.726562 468.292969 L 440.71875 454.277344 L 342.289062 447.246094 L 312.15625 443.890625 C 296.894531 442.1875 285.375 429.355469 285.375 414 C 285.375 404.078125 290.242188 395.066406 298.433594 389.433594 L 503.019531 404.984375 L 504.117188 390.972656 L 288.8125 374.597656 L 263.296875 372.5625 C 248.066406 371.328125 236.105469 358.414062 236.105469 343.109375 C 236.105469 326.816406 249.359375 313.570312 265.664062 313.570312 L 533.703125 313.570312 C 555.890625 313.570312 573.953125 331.625 573.953125 353.796875 C 573.953125 365.171875 569.359375 375.667969 561.003906 383.363281 Z M 318.671875 158.824219 L 354.359375 158.824219 L 328.761719 299.503906 L 273.882812 299.503906 Z M 412.066406 158.824219 L 448.167969 158.824219 L 467.332031 299.503906 L 412.066406 299.503906 Z M 343.085938 299.503906 L 368.683594 158.824219 L 397.992188 158.824219 L 397.992188 299.503906 Z M 536.175781 299.503906 L 481.546875 299.503906 L 462.382812 158.824219 L 491.386719 158.824219 Z M 551.984375 302.746094 L 503.238281 149.648438 C 502.304688 146.734375 499.582031 144.757812 496.53125 144.757812 L 313.53125 144.757812 C 310.476562 144.757812 307.757812 146.734375 306.820312 149.648438 L 258.925781 300.082031 C 238.058594 303.324219 222.03125 321.347656 222.03125 343.109375 C 222.03125 365.695312 239.679688 384.789062 262.199219 386.578125 L 279.847656 388.003906 C 274.351562 395.398438 271.300781 404.4375 271.300781 414 C 271.300781 436.527344 288.207031 455.378906 310.617188 457.878906 L 332.335938 460.296875 C 329.257812 465.847656 327.605469 472.109375 327.605469 478.566406 C 327.605469 496.539062 339.839844 511.925781 357.382812 515.964844 L 380.640625 521.320312 C 387.820312 522.96875 393.566406 528.109375 395.984375 535.058594 C 398.402344 542.011719 397.082031 549.621094 392.492188 555.363281 C 390.789062 557.480469 390.484375 560.363281 391.640625 562.808594 C 392.824219 565.253906 395.269531 566.792969 397.992188 566.792969 L 419.105469 566.792969 C 454.050781 566.792969 482.453125 538.382812 482.453125 503.488281 C 482.453125 494.035156 480.308594 484.722656 476.292969 476.285156 L 479.261719 476.589844 C 494.414062 478.320312 509.5625 473.429688 520.917969 463.289062 C 532.273438 453.152344 538.761719 438.589844 538.761719 423.394531 C 538.761719 418.175781 537.992188 413.007812 536.507812 408.035156 C 549.097656 407.375 561.195312 402.347656 570.542969 393.71875 C 581.652344 383.472656 588.03125 368.910156 588.03125 353.796875 C 588.03125 330.277344 572.964844 310.273438 551.984375 302.746094 " fill-opacity="1" fill-rule="nonzero"/></g><path fill="#a6a6a6" d="M 440.222656 517.554688 L 454.300781 517.554688 L 454.300781 503.488281 L 440.222656 503.488281 L 440.222656 517.554688 " fill-opacity="1" fill-rule="nonzero"/><path fill="#a6a6a6" d="M 397.992188 496.453125 L 412.066406 496.453125 L 412.066406 482.386719 L 397.992188 482.386719 L 397.992188 496.453125 " fill-opacity="1" fill-rule="nonzero"/><path fill="#a6a6a6" d="M 376.875 440.183594 L 390.953125 440.183594 L 390.953125 426.113281 L 376.875 426.113281 L 376.875 440.183594 " fill-opacity="1" fill-rule="nonzero"/><path fill="#a6a6a6" d="M 482.453125 433.148438 L 496.53125 433.148438 L 496.53125 419.082031 L 482.453125 419.082031 L 482.453125 433.148438 " fill-opacity="1" fill-rule="nonzero"/><path fill="#a6a6a6" d="M 313.53125 419.082031 L 327.605469 419.082031 L 327.605469 405.011719 L 313.53125 405.011719 L 313.53125 419.082031 " fill-opacity="1" fill-rule="nonzero"/><path fill="#a6a6a6" d="M 531.722656 369.84375 L 545.800781 369.84375 L 545.800781 355.777344 L 531.722656 355.777344 L 531.722656 369.84375 " fill-opacity="1" fill-rule="nonzero"/><path fill="#a6a6a6" d="M 433.183594 369.84375 L 447.261719 369.84375 L 447.261719 355.777344 L 433.183594 355.777344 L 433.183594 369.84375 " fill-opacity="1" fill-rule="nonzero"/><path fill="#a6a6a6" d="M 496.53125 341.707031 L 510.605469 341.707031 L 510.605469 327.640625 L 496.53125 327.640625 L 496.53125 341.707031 " fill-opacity="1" fill-rule="nonzero"/><path fill="#a6a6a6" d="M 362.800781 348.742188 L 376.875 348.742188 L 376.875 334.671875 L 362.800781 334.671875 L 362.800781 348.742188 " fill-opacity="1" fill-rule="nonzero"/><path fill="#a6a6a6" d="M 271.300781 362.808594 L 285.375 362.808594 L 285.375 348.742188 L 271.300781 348.742188 L 271.300781 362.808594 " fill-opacity="1" fill-rule="nonzero"/><g clip-path="url(#d6a0c083c9)"><g clip-path="url(#f17a9aa9ba)"><path fill="#e5afd5" d="M 480.453125 540.652344 L 540.453125 540.652344 L 540.453125 593.152344 L 480.453125 593.152344 Z M 480.453125 540.652344 " fill-opacity="1" fill-rule="nonzero"/></g></g></svg>