<svg xmlns="http://www.w3.org/2000/svg" xmlns:xlink="http://www.w3.org/1999/xlink" width="1080" zoomAndPan="magnify" viewBox="0 0 810 1439.999935" height="1920" preserveAspectRatio="xMidYMid meet" version="1.0"><defs><g/><clipPath id="4a1f710dfb"><path d="M 137.679688 452.679688 L 672.429688 452.679688 L 672.429688 987.429688 L 137.679688 987.429688 Z M 137.679688 452.679688 " clip-rule="nonzero"/></clipPath><clipPath id="c6031c4414"><path d="M 296.871094 573.617188 L 512.871094 573.617188 L 512.871094 822.617188 L 296.871094 822.617188 Z M 296.871094 573.617188 " clip-rule="nonzero"/></clipPath><clipPath id="e8e5468d15"><path d="M 393 839 L 435 839 L 435 875.488281 L 393 875.488281 Z M 393 839 " clip-rule="nonzero"/></clipPath><clipPath id="164cb736b5"><path d="M 395.265625 845.28125 C 391.933594 850.769531 394.28125 856.109375 397.230469 858.945312 L 414.472656 875.488281 L 431.355469 859.003906 C 434.097656 855.953125 435.148438 852.71875 434.566406 849.117188 C 433.757812 844.132812 429.652344 840.265625 424.582031 839.714844 C 421.46875 839.378906 418.464844 840.261719 416.117188 842.210938 C 415.484375 842.734375 414.921875 843.320312 414.429688 843.957031 C 413.847656 843.230469 413.164062 842.566406 412.386719 841.980469 C 409.691406 839.929688 406.257812 839.117188 402.957031 839.75 C 399.835938 840.351562 397.03125 842.367188 395.265625 845.28125 " clip-rule="nonzero"/></clipPath></defs><g clip-path="url(#4a1f710dfb)"><path fill="#243b8c" d="M 405.054688 452.679688 C 257.53125 452.679688 137.679688 572.53125 137.679688 720.054688 C 137.679688 867.574219 257.53125 987.429688 405.054688 987.429688 C 552.574219 987.429688 672.429688 867.574219 672.429688 720.054688 C 672.429688 572.53125 552.574219 452.679688 405.054688 452.679688 Z M 405.054688 464.304688 C 546.449219 464.304688 660.804688 578.660156 660.804688 720.054688 C 660.804688 861.449219 546.449219 975.804688 405.054688 975.804688 C 263.660156 975.804688 149.304688 861.449219 149.304688 720.054688 C 149.304688 578.660156 263.660156 464.304688 405.054688 464.304688 Z M 405.054688 464.304688 " fill-opacity="1" fill-rule="nonzero"/></g><g clip-path="url(#c6031c4414)"><path fill="#243b8c" d="M 496.917969 714.386719 C 492.472656 718.484375 486.828125 720.6875 480.855469 720.6875 C 480.222656 720.6875 479.558594 720.65625 478.910156 720.605469 L 476.425781 720.414062 C 474.886719 720.265625 473.425781 721.027344 472.597656 722.324219 C 471.769531 723.605469 471.722656 725.242188 472.484375 726.585938 C 474.445312 730.070312 475.484375 734.007812 475.484375 737.992188 C 475.484375 744.605469 472.660156 750.925781 467.730469 755.332031 C 462.78125 759.738281 456.160156 761.828125 449.605469 761.132812 L 439.269531 759.980469 C 437.53125 759.769531 435.957031 760.644531 435.148438 762.136719 C 434.351562 763.609375 434.53125 765.441406 435.601562 766.738281 C 439.886719 771.921875 442.253906 778.484375 442.253906 785.226562 C 442.253906 801.234375 429.207031 814.261719 413.175781 814.261719 L 407.578125 814.261719 C 408.910156 810.050781 408.894531 805.464844 407.367188 801.121094 C 405 794.316406 399.386719 789.277344 392.34375 787.65625 L 378.617188 784.496094 C 372.0625 782.992188 367.484375 777.238281 367.484375 770.53125 C 367.484375 766.820312 369.027344 763.320312 371.671875 760.644531 L 425.347656 764.46875 L 425.929688 756.207031 L 367.84375 752.058594 L 350.058594 750.082031 C 341.054688 749.078125 334.253906 741.507812 334.253906 732.453125 C 334.253906 726.601562 337.125 721.289062 341.960938 717.964844 L 462.699219 727.136719 L 463.347656 718.875 L 336.28125 709.214844 L 321.226562 708.015625 C 312.234375 707.289062 305.175781 699.671875 305.175781 690.648438 C 305.175781 681.039062 313 673.226562 322.621094 673.226562 L 480.808594 673.226562 C 493.902344 673.226562 504.5625 683.875 504.5625 696.949219 C 504.5625 703.65625 501.851562 709.847656 496.917969 714.386719 Z M 353.902344 581.96875 L 374.964844 581.96875 L 359.859375 664.933594 L 327.472656 664.933594 Z M 409.023438 581.96875 L 430.328125 581.96875 L 441.636719 664.933594 L 409.023438 664.933594 Z M 368.3125 664.933594 L 383.417969 581.96875 L 400.714844 581.96875 L 400.714844 664.933594 Z M 482.269531 664.933594 L 450.027344 664.933594 L 438.71875 581.96875 L 455.835938 581.96875 Z M 491.597656 666.84375 L 462.828125 576.558594 C 462.277344 574.839844 460.671875 573.671875 458.871094 573.671875 L 350.871094 573.671875 C 349.070312 573.671875 347.460938 574.839844 346.910156 576.558594 L 318.644531 665.273438 C 306.328125 667.183594 296.871094 677.8125 296.871094 690.648438 C 296.871094 703.964844 307.285156 715.226562 320.574219 716.28125 L 330.992188 717.125 C 327.746094 721.480469 325.945312 726.8125 325.945312 732.453125 C 325.945312 745.738281 335.925781 756.855469 349.148438 758.328125 L 361.96875 759.753906 C 360.152344 763.027344 359.175781 766.722656 359.175781 770.53125 C 359.175781 781.128906 366.398438 790.203125 376.75 792.582031 L 390.476562 795.742188 C 394.710938 796.714844 398.105469 799.746094 399.53125 803.84375 C 400.960938 807.945312 400.179688 812.433594 397.472656 815.820312 C 396.464844 817.066406 396.285156 818.769531 396.96875 820.210938 C 397.664062 821.652344 399.109375 822.558594 400.714844 822.558594 L 413.175781 822.558594 C 433.800781 822.558594 450.5625 805.804688 450.5625 785.226562 C 450.5625 779.652344 449.296875 774.160156 446.925781 769.183594 L 448.679688 769.363281 C 457.621094 770.382812 466.5625 767.5 473.261719 761.519531 C 479.964844 755.542969 483.792969 746.953125 483.792969 737.992188 C 483.792969 734.914062 483.339844 731.867188 482.460938 728.9375 C 489.894531 728.546875 497.035156 725.582031 502.550781 720.492188 C 509.105469 714.449219 512.871094 705.863281 512.871094 696.949219 C 512.871094 683.078125 503.976562 671.285156 491.597656 666.84375 " fill-opacity="1" fill-rule="nonzero"/></g><path fill="#243b8c" d="M 425.640625 793.523438 L 433.945312 793.523438 L 433.945312 785.226562 L 425.640625 785.226562 L 425.640625 793.523438 " fill-opacity="1" fill-rule="nonzero"/><path fill="#243b8c" d="M 400.714844 781.078125 L 409.023438 781.078125 L 409.023438 772.78125 L 400.714844 772.78125 L 400.714844 781.078125 " fill-opacity="1" fill-rule="nonzero"/><path fill="#243b8c" d="M 388.253906 747.894531 L 396.5625 747.894531 L 396.5625 739.597656 L 388.253906 739.597656 L 388.253906 747.894531 " fill-opacity="1" fill-rule="nonzero"/><path fill="#243b8c" d="M 450.5625 743.746094 L 458.871094 743.746094 L 458.871094 735.449219 L 450.5625 735.449219 L 450.5625 743.746094 " fill-opacity="1" fill-rule="nonzero"/><path fill="#243b8c" d="M 350.871094 735.449219 L 359.175781 735.449219 L 359.175781 727.152344 L 350.871094 727.152344 L 350.871094 735.449219 " fill-opacity="1" fill-rule="nonzero"/><path fill="#243b8c" d="M 479.640625 706.414062 L 487.945312 706.414062 L 487.945312 698.117188 L 479.640625 698.117188 L 479.640625 706.414062 " fill-opacity="1" fill-rule="nonzero"/><path fill="#243b8c" d="M 421.484375 706.414062 L 429.792969 706.414062 L 429.792969 698.117188 L 421.484375 698.117188 L 421.484375 706.414062 " fill-opacity="1" fill-rule="nonzero"/><path fill="#243b8c" d="M 458.871094 689.820312 L 467.175781 689.820312 L 467.175781 681.523438 L 458.871094 681.523438 L 458.871094 689.820312 " fill-opacity="1" fill-rule="nonzero"/><path fill="#243b8c" d="M 379.945312 693.96875 L 388.253906 693.96875 L 388.253906 685.671875 L 379.945312 685.671875 L 379.945312 693.96875 " fill-opacity="1" fill-rule="nonzero"/><path fill="#243b8c" d="M 325.945312 702.265625 L 334.253906 702.265625 L 334.253906 693.96875 L 325.945312 693.96875 L 325.945312 702.265625 " fill-opacity="1" fill-rule="nonzero"/><g clip-path="url(#e8e5468d15)"><g clip-path="url(#164cb736b5)"><path fill="#243b8c" d="M 393.636719 839.539062 L 434.722656 839.539062 L 434.722656 875.488281 L 393.636719 875.488281 Z M 393.636719 839.539062 " fill-opacity="1" fill-rule="nonzero"/></g></g><g fill="#243b8c" fill-opacity="1"><g transform="translate(298.161298, 548.241136)"><g><path d="M -10.46875 -25.359375 L 0.015625 -30.953125 C 3.085938 -32.597656 5.859375 -33.144531 8.328125 -32.59375 C 10.796875 -32.050781 12.75 -30.4375 14.1875 -27.75 C 15.695312 -24.9375 16.019531 -22.296875 15.15625 -19.828125 C 14.300781 -17.367188 12.335938 -15.316406 9.265625 -13.671875 L 4.90625 -11.34375 L 8.53125 -4.5625 L 2.40625 -1.296875 Z M -1.765625 -23.8125 L 2.328125 -16.15625 L 6.375 -18.328125 C 7.726562 -19.046875 8.59375 -19.929688 8.96875 -20.984375 C 9.351562 -22.035156 9.207031 -23.191406 8.53125 -24.453125 C 7.875 -25.679688 7.003906 -26.421875 5.921875 -26.671875 C 4.847656 -26.929688 3.632812 -26.703125 2.28125 -25.984375 Z M -1.765625 -23.8125 "/></g></g></g><g fill="#243b8c" fill-opacity="1"><g transform="translate(331.776478, 531.807827)"><g><path d="M 9.125 -3.21875 L 2.578125 -0.90625 L -6.5 -26.625 L 0.046875 -28.9375 Z M 9.125 -3.21875 "/></g></g></g><g fill="#243b8c" fill-opacity="1"><g transform="translate(353.896585, 524.296616)"><g><path d="M 10.15625 -29.921875 C 12.144531 -30.296875 14.175781 -30.253906 16.25 -29.796875 C 18.332031 -29.347656 20.1875 -28.5625 21.8125 -27.4375 L 18.75 -22.03125 C 17.675781 -22.925781 16.472656 -23.570312 15.140625 -23.96875 C 13.804688 -24.375 12.535156 -24.460938 11.328125 -24.234375 C 9.203125 -23.835938 7.566406 -22.753906 6.421875 -20.984375 C 5.285156 -19.222656 4.921875 -17.242188 5.328125 -15.046875 C 5.753906 -12.804688 6.820312 -11.066406 8.53125 -9.828125 C 10.25 -8.585938 12.171875 -8.164062 14.296875 -8.5625 C 15.421875 -8.78125 16.535156 -9.285156 17.640625 -10.078125 C 18.742188 -10.867188 19.679688 -11.835938 20.453125 -12.984375 L 25.234375 -9.515625 C 24.046875 -7.753906 22.546875 -6.238281 20.734375 -4.96875 C 18.929688 -3.707031 17.046875 -2.890625 15.078125 -2.515625 C 11.046875 -1.753906 7.4375 -2.4375 4.25 -4.5625 C 1.070312 -6.6875 -0.882812 -9.71875 -1.625 -13.65625 C -2.351562 -17.507812 -1.59375 -20.988281 0.65625 -24.09375 C 2.90625 -27.207031 6.070312 -29.148438 10.15625 -29.921875 Z M 10.15625 -29.921875 "/></g></g></g><g fill="#243b8c" fill-opacity="1"><g transform="translate(390.864436, 518.325767)"><g><path d="M 15.53125 -27.5 C 17.5625 -27.5 19.554688 -27.082031 21.515625 -26.25 C 23.472656 -25.425781 25.144531 -24.3125 26.53125 -22.90625 L 22.515625 -18.15625 C 21.628906 -19.238281 20.566406 -20.097656 19.328125 -20.734375 C 18.097656 -21.378906 16.867188 -21.703125 15.640625 -21.703125 C 13.484375 -21.710938 11.675781 -20.957031 10.21875 -19.4375 C 8.769531 -17.914062 8.046875 -16.035156 8.046875 -13.796875 C 8.035156 -11.515625 8.753906 -9.601562 10.203125 -8.0625 C 11.660156 -6.53125 13.46875 -5.757812 15.625 -5.75 C 16.769531 -5.75 17.957031 -6.035156 19.1875 -6.609375 C 20.425781 -7.179688 21.53125 -7.960938 22.5 -8.953125 L 26.546875 -4.65625 C 25.066406 -3.15625 23.316406 -1.945312 21.296875 -1.03125 C 19.285156 -0.125 17.28125 0.328125 15.28125 0.328125 C 11.175781 0.316406 7.757812 -1.023438 5.03125 -3.703125 C 2.300781 -6.378906 0.941406 -9.71875 0.953125 -13.71875 C 0.953125 -17.644531 2.34375 -20.925781 5.125 -23.5625 C 7.90625 -26.195312 11.375 -27.507812 15.53125 -27.5 Z M 15.53125 -27.5 "/></g></g></g><g fill="#243b8c" fill-opacity="1"><g transform="translate(428.186332, 519.157291)"><g><path d="M 20.765625 -23.90625 C 24.921875 -23.070312 28.117188 -21.082031 30.359375 -17.9375 C 32.597656 -14.800781 33.328125 -11.300781 32.546875 -7.4375 C 31.765625 -3.53125 29.726562 -0.539062 26.4375 1.53125 C 23.144531 3.601562 19.429688 4.222656 15.296875 3.390625 C 11.171875 2.566406 7.992188 0.570312 5.765625 -2.59375 C 3.546875 -5.757812 2.828125 -9.304688 3.609375 -13.234375 C 4.390625 -17.117188 6.410156 -20.070312 9.671875 -22.09375 C 12.941406 -24.125 16.640625 -24.726562 20.765625 -23.90625 Z M 19.703125 -18.203125 C 17.609375 -18.617188 15.671875 -18.21875 13.890625 -17 C 12.117188 -15.78125 11.007812 -14.046875 10.5625 -11.796875 C 10.113281 -9.554688 10.476562 -7.515625 11.65625 -5.671875 C 12.832031 -3.835938 14.453125 -2.710938 16.515625 -2.296875 C 18.578125 -1.878906 20.484375 -2.296875 22.234375 -3.546875 C 23.992188 -4.804688 25.097656 -6.554688 25.546875 -8.796875 C 25.992188 -11.046875 25.644531 -13.070312 24.5 -14.875 C 23.363281 -16.675781 21.765625 -17.785156 19.703125 -18.203125 Z M 19.703125 -18.203125 "/></g></g></g><g fill="#243b8c" fill-opacity="1"><g transform="translate(468.9095, 528.767155)"><g><path d="M 11.140625 -1.78125 L 21.875 2.546875 L 19.703125 7.9375 L 2.53125 1.015625 L 12.734375 -24.28125 L 19.171875 -21.6875 Z M 11.140625 -1.78125 "/></g></g></g><g fill="#243b8c" fill-opacity="1"><g transform="translate(498.991619, 542.092113)"><g><path d="M 8.375 4.84375 L 2.375 1.375 L 16.03125 -22.25 L 22.03125 -18.78125 Z M 8.375 4.84375 "/></g></g></g><g fill="#243b8c" fill-opacity="1"><g transform="translate(227.429247, 857.639727)"><g><path d="M 15.21875 -10.109375 L 20.1875 -4.046875 C 21.988281 -1.835938 22.804688 0.492188 22.640625 2.953125 C 22.472656 5.410156 21.347656 7.492188 19.265625 9.203125 C 17.179688 10.898438 14.910156 11.578125 12.453125 11.234375 C 9.992188 10.890625 7.835938 9.582031 5.984375 7.3125 L 1.140625 1.40625 Z M 15.296875 -4.1875 L 6.9375 2.65625 L 9.03125 5.21875 C 9.925781 6.3125 11.046875 6.894531 12.390625 6.96875 C 13.742188 7.050781 15.035156 6.585938 16.265625 5.578125 C 17.492188 4.566406 18.195312 3.367188 18.375 1.984375 C 18.5625 0.609375 18.1875 -0.648438 17.25 -1.796875 Z M 15.296875 -4.1875 "/></g></g></g><g fill="#243b8c" fill-opacity="1"><g transform="translate(245.865745, 879.352176)"><g><path d="M 20.1875 -6.21875 C 22.238281 -4.289062 23.34375 -2.046875 23.5 0.515625 C 23.65625 3.085938 22.835938 5.328125 21.046875 7.234375 C 19.222656 9.171875 17.015625 10.144531 14.421875 10.15625 C 11.835938 10.164062 9.519531 9.207031 7.46875 7.28125 C 5.425781 5.363281 4.332031 3.117188 4.1875 0.546875 C 4.039062 -2.023438 4.878906 -4.285156 6.703125 -6.234375 C 8.515625 -8.160156 10.703125 -9.117188 13.265625 -9.109375 C 15.828125 -9.109375 18.132812 -8.144531 20.1875 -6.21875 Z M 17.5625 -3.359375 C 16.519531 -4.335938 15.28125 -4.789062 13.84375 -4.71875 C 12.40625 -4.65625 11.164062 -4.066406 10.125 -2.953125 C 9.082031 -1.847656 8.566406 -0.566406 8.578125 0.890625 C 8.597656 2.347656 9.117188 3.554688 10.140625 4.515625 C 11.171875 5.472656 12.398438 5.898438 13.828125 5.796875 C 15.265625 5.703125 16.503906 5.097656 17.546875 3.984375 C 18.585938 2.878906 19.101562 1.617188 19.09375 0.203125 C 19.09375 -1.210938 18.582031 -2.398438 17.5625 -3.359375 Z M 17.5625 -3.359375 "/></g></g></g><g fill="#243b8c" fill-opacity="1"><g transform="translate(267.726225, 898.928737)"><g><path d="M 7.484375 0.6875 L 13.6875 5.28125 L 11.390625 8.40625 L 1.453125 1.078125 L 12.25 -13.5625 L 15.984375 -10.828125 Z M 7.484375 0.6875 "/></g></g></g><g fill="#243b8c" fill-opacity="1"><g transform="translate(286.404634, 912.235818)"><g><path d="M 18.125 -10.71875 C 19.300781 -10.039062 20.316406 -9.132812 21.171875 -8 C 22.023438 -6.875 22.617188 -5.675781 22.953125 -4.40625 L 19.046875 -2.984375 C 18.890625 -3.921875 18.5625 -4.773438 18.0625 -5.546875 C 17.5625 -6.328125 16.960938 -6.921875 16.265625 -7.328125 C 15.015625 -8.046875 13.71875 -8.207031 12.375 -7.8125 C 11.03125 -7.425781 9.984375 -6.585938 9.234375 -5.296875 C 8.472656 -3.972656 8.253906 -2.625 8.578125 -1.25 C 8.910156 0.113281 9.703125 1.15625 10.953125 1.875 C 11.609375 2.257812 12.382812 2.492188 13.28125 2.578125 C 14.1875 2.660156 15.085938 2.578125 15.984375 2.328125 L 16.875 6.140625 C 15.519531 6.523438 14.113281 6.640625 12.65625 6.484375 C 11.195312 6.335938 9.890625 5.929688 8.734375 5.265625 C 6.359375 3.890625 4.828125 1.976562 4.140625 -0.46875 C 3.453125 -2.914062 3.773438 -5.296875 5.109375 -7.609375 C 6.421875 -9.867188 8.316406 -11.296875 10.796875 -11.890625 C 13.285156 -12.492188 15.726562 -12.101562 18.125 -10.71875 Z M 18.125 -10.71875 "/></g></g></g><g fill="#243b8c" fill-opacity="1"><g transform="translate(309.42489, 924.77976)"><g><path d="M 5.859375 2.65625 L 1.65625 0.75 L 9.171875 -15.8125 L 13.375 -13.90625 Z M 5.859375 2.65625 "/></g></g></g><g fill="#243b8c" fill-opacity="1"><g transform="translate(324.358759, 931.217301)"><g/></g></g><g fill="#243b8c" fill-opacity="1"><g transform="translate(337.729576, 936.09989)"><g><path d="M 6.546875 -17.0625 L 14.203125 -14.984375 C 16.429688 -14.367188 18.019531 -13.359375 18.96875 -11.953125 C 19.914062 -10.554688 20.125 -8.878906 19.59375 -6.921875 C 19.03125 -4.867188 17.972656 -3.441406 16.421875 -2.640625 C 14.867188 -1.847656 12.976562 -1.757812 10.75 -2.375 L 7.546875 -3.234375 L 6.203125 1.703125 L 1.75 0.484375 Z M 10.03125 -12.328125 L 8.515625 -6.734375 L 11.484375 -5.9375 C 12.472656 -5.664062 13.296875 -5.703125 13.953125 -6.046875 C 14.617188 -6.390625 15.078125 -7.019531 15.328125 -7.9375 C 15.578125 -8.832031 15.5 -9.585938 15.09375 -10.203125 C 14.6875 -10.816406 13.988281 -11.257812 13 -11.53125 Z M 10.03125 -12.328125 "/></g></g></g><g fill="#243b8c" fill-opacity="1"><g transform="translate(363.079914, 942.54973)"><g><path d="M 14.25 -1.359375 L 6.375 -2.484375 L 4.578125 0.65625 L -0.125 -0.015625 L 10.21875 -16.90625 L 14.921875 -16.234375 L 19.9375 2.859375 L 15.046875 2.15625 Z M 13.390625 -5.015625 L 11.796875 -12.046875 L 8.1875 -5.765625 Z M 13.390625 -5.015625 "/></g></g></g><g fill="#243b8c" fill-opacity="1"><g transform="translate(391.339791, 945.985149)"><g><path d="M 9.1875 -18.203125 C 11.90625 -18.148438 14.285156 -17.429688 16.328125 -16.046875 L 14.5 -12.46875 C 13.5625 -13.039062 12.546875 -13.515625 11.453125 -13.890625 C 10.367188 -14.265625 9.457031 -14.460938 8.71875 -14.484375 C 7.382812 -14.503906 6.710938 -14.070312 6.703125 -13.1875 C 6.691406 -12.613281 7.007812 -12.148438 7.65625 -11.796875 C 8.300781 -11.441406 9.09375 -11.125 10.03125 -10.84375 C 10.96875 -10.570312 11.90625 -10.25 12.84375 -9.875 C 13.789062 -9.5 14.582031 -8.90625 15.21875 -8.09375 C 15.863281 -7.289062 16.171875 -6.285156 16.140625 -5.078125 C 16.109375 -3.328125 15.394531 -1.972656 14 -1.015625 C 12.613281 -0.0664062 10.863281 0.382812 8.75 0.34375 C 7.25 0.3125 5.765625 0.0195312 4.296875 -0.53125 C 2.835938 -1.082031 1.570312 -1.816406 0.5 -2.734375 L 2.359375 -6.265625 C 3.265625 -5.453125 4.335938 -4.773438 5.578125 -4.234375 C 6.816406 -3.691406 7.921875 -3.410156 8.890625 -3.390625 C 9.628906 -3.378906 10.207031 -3.503906 10.625 -3.765625 C 11.050781 -4.023438 11.269531 -4.414062 11.28125 -4.9375 C 11.289062 -5.4375 11.0625 -5.859375 10.59375 -6.203125 C 10.125 -6.554688 9.535156 -6.820312 8.828125 -7 C 8.117188 -7.1875 7.351562 -7.425781 6.53125 -7.71875 C 5.707031 -8.007812 4.941406 -8.328125 4.234375 -8.671875 C 3.523438 -9.015625 2.941406 -9.550781 2.484375 -10.28125 C 2.023438 -11.007812 1.804688 -11.878906 1.828125 -12.890625 C 1.859375 -14.546875 2.546875 -15.859375 3.890625 -16.828125 C 5.234375 -17.796875 7 -18.253906 9.1875 -18.203125 Z M 9.1875 -18.203125 "/></g></g></g><g fill="#243b8c" fill-opacity="1"><g transform="translate(416.450921, 946.012329)"><g><path d="M 14.34375 -15.84375 L 8.875 -15.34375 L 10.1875 -0.9375 L 5.59375 -0.515625 L 4.28125 -14.921875 L -1.125 -14.421875 L -1.46875 -18.15625 L 14 -19.578125 Z M 14.34375 -15.84375 "/></g></g></g><g fill="#243b8c" fill-opacity="1"><g transform="translate(440.612017, 943.3914)"><g><path d="M 12.5 -2.640625 L 8.796875 -7.09375 L 8.671875 -7.078125 L 5.234375 -6.34375 L 6.296875 -1.328125 L 1.765625 -0.375 L -2 -18.171875 L 5.96875 -19.859375 C 8.320312 -20.347656 10.257812 -20.191406 11.78125 -19.390625 C 13.300781 -18.585938 14.269531 -17.195312 14.6875 -15.21875 C 15.269531 -12.46875 14.597656 -10.332031 12.671875 -8.8125 L 17.640625 -3.734375 Z M 4.484375 -9.890625 L 7.921875 -10.625 C 8.898438 -10.832031 9.609375 -11.238281 10.046875 -11.84375 C 10.492188 -12.457031 10.617188 -13.226562 10.421875 -14.15625 C 10.234375 -15.070312 9.816406 -15.707031 9.171875 -16.0625 C 8.523438 -16.425781 7.710938 -16.503906 6.734375 -16.296875 L 3.296875 -15.5625 Z M 4.484375 -9.890625 "/></g></g></g><g fill="#243b8c" fill-opacity="1"><g transform="translate(467.174786, 937.219135)"><g><path d="M 8.6875 -9.1875 L 10.59375 -3.625 L 6.234375 -2.140625 L 4.375 -7.578125 L -6.015625 -17.15625 L -1.625 -18.65625 L 5.078125 -12.59375 L 6.578125 -21.46875 L 10.953125 -22.953125 Z M 8.6875 -9.1875 "/></g></g></g><g fill="#243b8c" fill-opacity="1"><g transform="translate(491.424003, 928.258992)"><g/></g></g><g fill="#243b8c" fill-opacity="1"><g transform="translate(504.346855, 922.339743)"><g><path d="M -1.28125 -20.359375 C 1.09375 -21.679688 3.507812 -22.257812 5.96875 -22.09375 L 6.203125 -18.078125 C 5.109375 -18.109375 4 -18.007812 2.875 -17.78125 C 1.75 -17.550781 0.863281 -17.257812 0.21875 -16.90625 C -0.945312 -16.25 -1.316406 -15.535156 -0.890625 -14.765625 C -0.609375 -14.265625 -0.0976562 -14.023438 0.640625 -14.046875 C 1.378906 -14.066406 2.222656 -14.191406 3.171875 -14.421875 C 4.117188 -14.660156 5.09375 -14.859375 6.09375 -15.015625 C 7.09375 -15.171875 8.070312 -15.054688 9.03125 -14.671875 C 10 -14.296875 10.773438 -13.582031 11.359375 -12.53125 C 12.210938 -11 12.28125 -9.472656 11.5625 -7.953125 C 10.84375 -6.429688 9.5625 -5.15625 7.71875 -4.125 C 6.40625 -3.394531 4.976562 -2.898438 3.4375 -2.640625 C 1.894531 -2.378906 0.425781 -2.375 -0.96875 -2.625 L -1.125 -6.609375 C 0.0625 -6.359375 1.320312 -6.3125 2.65625 -6.46875 C 4 -6.632812 5.09375 -6.953125 5.9375 -7.421875 C 6.582031 -7.785156 7.019531 -8.1875 7.25 -8.625 C 7.488281 -9.0625 7.484375 -9.507812 7.234375 -9.96875 C 6.984375 -10.40625 6.570312 -10.65625 6 -10.71875 C 5.425781 -10.78125 4.785156 -10.707031 4.078125 -10.5 C 3.367188 -10.300781 2.582031 -10.117188 1.71875 -9.953125 C 0.863281 -9.796875 0.046875 -9.6875 -0.734375 -9.625 C -1.515625 -9.5625 -2.285156 -9.726562 -3.046875 -10.125 C -3.816406 -10.519531 -4.445312 -11.160156 -4.9375 -12.046875 C -5.75 -13.492188 -5.816406 -14.972656 -5.140625 -16.484375 C -4.472656 -18.003906 -3.1875 -19.296875 -1.28125 -20.359375 Z M -1.28125 -20.359375 "/></g></g></g><g fill="#243b8c" fill-opacity="1"><g transform="translate(526.16123, 909.696318)"><g><path d="M 15.015625 -11 L 11.28125 -8.265625 L 7.109375 -13.96875 L 1.015625 -9.5 L 5.1875 -3.796875 L 1.46875 -1.078125 L -9.28125 -15.75 L -5.5625 -18.46875 L -1.140625 -12.4375 L 4.953125 -16.90625 L 0.53125 -22.9375 L 4.265625 -25.671875 Z M 15.015625 -11 "/></g></g></g><g fill="#243b8c" fill-opacity="1"><g transform="translate(549.217893, 892.125833)"><g><path d="M -5.15625 -20.46875 C -3.125 -22.425781 -0.828125 -23.414062 1.734375 -23.4375 C 4.304688 -23.457031 6.503906 -22.519531 8.328125 -20.625 C 10.160156 -18.707031 11.015625 -16.457031 10.890625 -13.875 C 10.773438 -11.289062 9.703125 -9.023438 7.671875 -7.078125 C 5.648438 -5.140625 3.347656 -4.164062 0.765625 -4.15625 C -1.804688 -4.144531 -4.015625 -5.097656 -5.859375 -7.015625 C -7.691406 -8.929688 -8.539062 -11.164062 -8.40625 -13.71875 C -8.269531 -16.269531 -7.1875 -18.519531 -5.15625 -20.46875 Z M -2.4375 -17.703125 C -3.46875 -16.710938 -3.984375 -15.5 -3.984375 -14.0625 C -3.992188 -12.625 -3.472656 -11.359375 -2.421875 -10.265625 C -1.367188 -9.171875 -0.113281 -8.59375 1.34375 -8.53125 C 2.800781 -8.476562 4.035156 -8.9375 5.046875 -9.90625 C 6.054688 -10.882812 6.546875 -12.085938 6.515625 -13.515625 C 6.492188 -14.953125 5.957031 -16.21875 4.90625 -17.3125 C 3.851562 -18.40625 2.617188 -18.988281 1.203125 -19.0625 C -0.210938 -19.132812 -1.425781 -18.679688 -2.4375 -17.703125 Z M -2.4375 -17.703125 "/></g></g></g><g fill="#243b8c" fill-opacity="1"><g transform="translate(569.99883, 871.307673)"><g><path d="M -13 -12.84375 L -8.015625 -19.015625 C -6.554688 -20.816406 -4.992188 -21.867188 -3.328125 -22.171875 C -1.671875 -22.484375 -0.0507812 -22.003906 1.53125 -20.734375 C 3.175781 -19.390625 4.050781 -17.847656 4.15625 -16.109375 C 4.269531 -14.367188 3.597656 -12.597656 2.140625 -10.796875 L 0.0625 -8.21875 L 4.046875 -5 L 1.140625 -1.40625 Z M -7.265625 -14.140625 L -2.75 -10.5 L -0.8125 -12.90625 C -0.164062 -13.695312 0.128906 -14.460938 0.078125 -15.203125 C 0.0234375 -15.953125 -0.367188 -16.625 -1.109375 -17.21875 C -1.835938 -17.8125 -2.5625 -18.046875 -3.28125 -17.921875 C -4 -17.796875 -4.679688 -17.335938 -5.328125 -16.546875 Z M -7.265625 -14.140625 "/></g></g></g></svg>