<svg xmlns="http://www.w3.org/2000/svg" xmlns:xlink="http://www.w3.org/1999/xlink" width="1080" zoomAndPan="magnify" viewBox="0 0 810 1439.999935" height="1920" preserveAspectRatio="xMidYMid meet" version="1.0"><defs><g/><clipPath id="5bdc961570"><path d="M 328.261719 517.46875 L 482.011719 517.46875 L 482.011719 695.21875 L 328.261719 695.21875 Z M 328.261719 517.46875 " clip-rule="nonzero"/></clipPath><clipPath id="78fcaf7e6d"><path d="M 445 677 L 466.71875 677 L 466.71875 695.21875 L 445 695.21875 Z M 445 677 " clip-rule="nonzero"/></clipPath><clipPath id="ccf47257b7"><path d="M 446.667969 680.113281 C 445.003906 682.859375 446.175781 685.527344 447.648438 686.945312 L 456.273438 695.21875 L 464.714844 686.976562 C 466.085938 685.449219 466.609375 683.832031 466.320312 682.03125 C 465.914062 679.539062 463.863281 677.605469 461.324219 677.332031 C 459.769531 677.164062 458.265625 677.605469 457.09375 678.578125 C 456.777344 678.839844 456.496094 679.132812 456.25 679.453125 C 455.957031 679.089844 455.617188 678.757812 455.230469 678.464844 C 453.882812 677.4375 452.164062 677.03125 450.515625 677.347656 C 448.953125 677.648438 447.550781 678.65625 446.667969 680.113281 " clip-rule="nonzero"/></clipPath></defs><rect x="-81" width="972" fill="#ffffff" y="-143.999994" height="1727.999922" fill-opacity="1"/><rect x="-81" width="972" fill="#ffffff" y="-143.999994" height="1727.999922" fill-opacity="1"/><rect x="-81" width="972" fill="#e5afd5" y="-143.999994" height="1727.999922" fill-opacity="1"/><g clip-path="url(#5bdc961570)"><path fill="#243b8c" d="M 470.660156 617.957031 C 467.496094 620.882812 463.476562 622.453125 459.226562 622.453125 C 458.773438 622.453125 458.300781 622.429688 457.839844 622.398438 L 456.070312 622.257812 C 454.972656 622.152344 453.933594 622.699219 453.347656 623.621094 C 452.757812 624.535156 452.722656 625.703125 453.265625 626.664062 C 454.664062 629.152344 455.402344 631.960938 455.402344 634.808594 C 455.402344 639.527344 453.390625 644.039062 449.882812 647.183594 C 446.359375 650.328125 441.644531 651.820312 436.980469 651.324219 L 429.621094 650.503906 C 428.386719 650.351562 427.265625 650.976562 426.6875 652.042969 C 426.125 653.09375 426.25 654.402344 427.011719 655.324219 C 430.0625 659.027344 431.75 663.710938 431.75 668.523438 C 431.75 679.949219 422.460938 689.25 411.050781 689.25 L 407.066406 689.25 C 408.011719 686.242188 408 682.96875 406.917969 679.871094 C 405.230469 675.011719 401.234375 671.414062 396.222656 670.257812 L 386.449219 668.003906 C 381.785156 666.925781 378.527344 662.820312 378.527344 658.03125 C 378.527344 655.382812 379.625 652.886719 381.507812 650.976562 L 419.714844 653.707031 L 420.128906 647.808594 L 378.78125 644.847656 L 366.121094 643.4375 C 359.710938 642.71875 354.875 637.316406 354.875 630.851562 C 354.875 626.675781 356.917969 622.882812 360.359375 620.511719 L 446.300781 627.058594 L 446.761719 621.160156 L 356.316406 614.265625 L 345.597656 613.410156 C 339.199219 612.890625 334.175781 607.453125 334.175781 601.011719 C 334.175781 594.152344 339.742188 588.578125 346.59375 588.578125 L 459.191406 588.578125 C 468.511719 588.578125 476.097656 596.175781 476.097656 605.511719 C 476.097656 610.296875 474.171875 614.71875 470.660156 617.957031 Z M 368.859375 523.4375 L 383.851562 523.4375 L 373.097656 582.65625 L 350.046875 582.65625 Z M 408.09375 523.4375 L 423.257812 523.4375 L 431.308594 582.65625 L 408.09375 582.65625 Z M 379.117188 582.65625 L 389.867188 523.4375 L 402.179688 523.4375 L 402.179688 582.65625 Z M 460.230469 582.65625 L 437.28125 582.65625 L 429.230469 523.4375 L 441.414062 523.4375 Z M 466.871094 584.019531 L 446.394531 519.574219 C 446 518.347656 444.855469 517.515625 443.574219 517.515625 L 366.699219 517.515625 C 365.417969 517.515625 364.273438 518.347656 363.882812 519.574219 L 343.761719 582.898438 C 334.996094 584.261719 328.261719 591.851562 328.261719 601.011719 C 328.261719 610.519531 335.675781 618.558594 345.136719 619.308594 L 352.550781 619.910156 C 350.242188 623.023438 348.960938 626.828125 348.960938 630.851562 C 348.960938 640.335938 356.0625 648.269531 365.476562 649.324219 L 374.601562 650.339844 C 373.304688 652.675781 372.613281 655.316406 372.613281 658.03125 C 372.613281 665.597656 377.753906 672.074219 385.121094 673.773438 L 394.894531 676.03125 C 397.90625 676.722656 400.320312 678.886719 401.335938 681.8125 C 402.355469 684.738281 401.800781 687.941406 399.871094 690.359375 C 399.15625 691.25 399.027344 692.464844 399.511719 693.496094 C 400.007812 694.523438 401.039062 695.171875 402.179688 695.171875 L 411.050781 695.171875 C 425.730469 695.171875 437.660156 683.210938 437.660156 668.523438 C 437.660156 664.542969 436.761719 660.625 435.074219 657.074219 L 436.320312 657.199219 C 442.6875 657.929688 449.050781 655.871094 453.820312 651.601562 C 458.589844 647.332031 461.316406 641.203125 461.316406 634.808594 C 461.316406 632.609375 460.992188 630.433594 460.367188 628.34375 C 465.65625 628.0625 470.738281 625.949219 474.667969 622.316406 C 479.332031 618 482.011719 611.871094 482.011719 605.511719 C 482.011719 595.609375 475.683594 587.1875 466.871094 584.019531 " fill-opacity="1" fill-rule="nonzero"/></g><path fill="#243b8c" d="M 419.921875 674.445312 L 425.835938 674.445312 L 425.835938 668.523438 L 419.921875 668.523438 L 419.921875 674.445312 " fill-opacity="1" fill-rule="nonzero"/><path fill="#243b8c" d="M 402.179688 665.5625 L 408.09375 665.5625 L 408.09375 659.640625 L 402.179688 659.640625 L 402.179688 665.5625 " fill-opacity="1" fill-rule="nonzero"/><path fill="#243b8c" d="M 393.3125 641.875 L 399.222656 641.875 L 399.222656 635.953125 L 393.3125 635.953125 L 393.3125 641.875 " fill-opacity="1" fill-rule="nonzero"/><path fill="#243b8c" d="M 437.660156 638.914062 L 443.574219 638.914062 L 443.574219 632.992188 L 437.660156 632.992188 L 437.660156 638.914062 " fill-opacity="1" fill-rule="nonzero"/><path fill="#243b8c" d="M 366.699219 632.992188 L 372.613281 632.992188 L 372.613281 627.070312 L 366.699219 627.070312 L 366.699219 632.992188 " fill-opacity="1" fill-rule="nonzero"/><path fill="#243b8c" d="M 458.359375 612.265625 L 464.273438 612.265625 L 464.273438 606.34375 L 458.359375 606.34375 L 458.359375 612.265625 " fill-opacity="1" fill-rule="nonzero"/><path fill="#243b8c" d="M 416.964844 612.265625 L 422.878906 612.265625 L 422.878906 606.34375 L 416.964844 606.34375 L 416.964844 612.265625 " fill-opacity="1" fill-rule="nonzero"/><path fill="#243b8c" d="M 443.574219 600.421875 L 449.488281 600.421875 L 449.488281 594.5 L 443.574219 594.5 L 443.574219 600.421875 " fill-opacity="1" fill-rule="nonzero"/><path fill="#243b8c" d="M 387.398438 603.382812 L 393.3125 603.382812 L 393.3125 597.460938 L 387.398438 597.460938 L 387.398438 603.382812 " fill-opacity="1" fill-rule="nonzero"/><path fill="#243b8c" d="M 348.960938 609.304688 L 354.875 609.304688 L 354.875 603.382812 L 348.960938 603.382812 L 348.960938 609.304688 " fill-opacity="1" fill-rule="nonzero"/><g clip-path="url(#78fcaf7e6d)"><g clip-path="url(#ccf47257b7)"><path fill="#243b8c" d="M 445.851562 677.242188 L 466.398438 677.242188 L 466.398438 695.21875 L 445.851562 695.21875 Z M 445.851562 677.242188 " fill-opacity="1" fill-rule="nonzero"/></g></g><g fill="#ffffff" fill-opacity="1"><g transform="translate(145.101144, 780.337116)"><g><path d="M 3.171875 -31.75 L 17.015625 -31.75 C 21.066406 -31.75 24.207031 -30.785156 26.4375 -28.859375 C 28.675781 -26.941406 29.796875 -24.21875 29.796875 -20.6875 C 29.796875 -16.96875 28.675781 -14.078125 26.4375 -12.015625 C 24.207031 -9.960938 21.066406 -8.9375 17.015625 -8.9375 L 11.25 -8.9375 L 11.25 0 L 3.171875 0 Z M 11.25 -25.40625 L 11.25 -15.28125 L 16.59375 -15.28125 C 18.382812 -15.28125 19.765625 -15.71875 20.734375 -16.59375 C 21.703125 -17.476562 22.1875 -18.75 22.1875 -20.40625 C 22.1875 -22.039062 21.703125 -23.28125 20.734375 -24.125 C 19.765625 -24.976562 18.382812 -25.40625 16.59375 -25.40625 Z M 11.25 -25.40625 "/></g></g></g><g fill="#ffffff" fill-opacity="1"><g transform="translate(191.141691, 780.337116)"><g><path d="M 11.25 0 L 3.171875 0 L 3.171875 -31.75 L 11.25 -31.75 Z M 11.25 0 "/></g></g></g><g fill="#ffffff" fill-opacity="1"><g transform="translate(220.761812, 780.337116)"><g><path d="M 18.046875 -32.03125 C 20.410156 -32.03125 22.734375 -31.546875 25.015625 -30.578125 C 27.296875 -29.609375 29.238281 -28.304688 30.84375 -26.671875 L 26.171875 -21.140625 C 25.140625 -22.410156 23.90625 -23.414062 22.46875 -24.15625 C 21.039062 -24.894531 19.613281 -25.265625 18.1875 -25.265625 C 15.675781 -25.265625 13.570312 -24.378906 11.875 -22.609375 C 10.1875 -20.835938 9.34375 -18.65625 9.34375 -16.0625 C 9.34375 -13.394531 10.1875 -11.171875 11.875 -9.390625 C 13.570312 -7.609375 15.675781 -6.71875 18.1875 -6.71875 C 19.519531 -6.71875 20.90625 -7.046875 22.34375 -7.703125 C 23.78125 -8.367188 25.054688 -9.28125 26.171875 -10.4375 L 30.890625 -5.4375 C 29.160156 -3.6875 27.125 -2.28125 24.78125 -1.21875 C 22.445312 -0.164062 20.113281 0.359375 17.78125 0.359375 C 13 0.359375 9.019531 -1.195312 5.84375 -4.3125 C 2.675781 -7.425781 1.09375 -11.3125 1.09375 -15.96875 C 1.09375 -20.53125 2.707031 -24.347656 5.9375 -27.421875 C 9.175781 -30.492188 13.210938 -32.03125 18.046875 -32.03125 Z M 18.046875 -32.03125 "/></g></g></g><g fill="#ffffff" fill-opacity="1"><g transform="translate(267.346665, 780.337116)"><g><path d="M 18.046875 -32.03125 C 20.410156 -32.03125 22.734375 -31.546875 25.015625 -30.578125 C 27.296875 -29.609375 29.238281 -28.304688 30.84375 -26.671875 L 26.171875 -21.140625 C 25.140625 -22.410156 23.90625 -23.414062 22.46875 -24.15625 C 21.039062 -24.894531 19.613281 -25.265625 18.1875 -25.265625 C 15.675781 -25.265625 13.570312 -24.378906 11.875 -22.609375 C 10.1875 -20.835938 9.34375 -18.65625 9.34375 -16.0625 C 9.34375 -13.394531 10.1875 -11.171875 11.875 -9.390625 C 13.570312 -7.609375 15.675781 -6.71875 18.1875 -6.71875 C 19.519531 -6.71875 20.90625 -7.046875 22.34375 -7.703125 C 23.78125 -8.367188 25.054688 -9.28125 26.171875 -10.4375 L 30.890625 -5.4375 C 29.160156 -3.6875 27.125 -2.28125 24.78125 -1.21875 C 22.445312 -0.164062 20.113281 0.359375 17.78125 0.359375 C 13 0.359375 9.019531 -1.195312 5.84375 -4.3125 C 2.675781 -7.425781 1.09375 -11.3125 1.09375 -15.96875 C 1.09375 -20.53125 2.707031 -24.347656 5.9375 -27.421875 C 9.175781 -30.492188 13.210938 -32.03125 18.046875 -32.03125 Z M 18.046875 -32.03125 "/></g></g></g><g fill="#ffffff" fill-opacity="1"><g transform="translate(313.931534, 780.337116)"><g><path d="M 18.234375 -32.03125 C 23.160156 -32.03125 27.253906 -30.492188 30.515625 -27.421875 C 33.785156 -24.347656 35.421875 -20.515625 35.421875 -15.921875 C 35.421875 -11.296875 33.78125 -7.425781 30.5 -4.3125 C 27.21875 -1.195312 23.128906 0.359375 18.234375 0.359375 C 13.335938 0.359375 9.253906 -1.1875 5.984375 -4.28125 C 2.722656 -7.382812 1.09375 -11.265625 1.09375 -15.921875 C 1.09375 -20.546875 2.722656 -24.382812 5.984375 -27.4375 C 9.253906 -30.5 13.335938 -32.03125 18.234375 -32.03125 Z M 18.328125 -25.265625 C 15.847656 -25.265625 13.726562 -24.363281 11.96875 -22.5625 C 10.21875 -20.769531 9.34375 -18.539062 9.34375 -15.875 C 9.34375 -13.21875 10.226562 -10.972656 12 -9.140625 C 13.769531 -7.304688 15.878906 -6.390625 18.328125 -6.390625 C 20.773438 -6.390625 22.851562 -7.304688 24.5625 -9.140625 C 26.269531 -10.972656 27.125 -13.21875 27.125 -15.875 C 27.125 -18.539062 26.269531 -20.769531 24.5625 -22.5625 C 22.851562 -24.363281 20.773438 -25.265625 18.328125 -25.265625 Z M 18.328125 -25.265625 "/></g></g></g><g fill="#ffffff" fill-opacity="1"><g transform="translate(365.642066, 780.337116)"><g><path d="M 11.25 -6.765625 L 24.71875 -6.765625 L 24.71875 0 L 3.171875 0 L 3.171875 -31.75 L 11.25 -31.75 Z M 11.25 -6.765625 "/></g></g></g><g fill="#ffffff" fill-opacity="1"><g transform="translate(406.239381, 780.337116)"><g><path d="M 11.25 0 L 3.171875 0 L 3.171875 -31.75 L 11.25 -31.75 Z M 11.25 0 "/></g></g></g><g fill="#ffffff" fill-opacity="1"><g transform="translate(435.85953, 780.337116)"><g/></g></g><g fill="#ffffff" fill-opacity="1"><g transform="translate(461.578696, 780.337116)"><g><path d="M 3.171875 -31.75 L 16.828125 -31.75 C 21.816406 -31.75 25.875 -30.28125 29 -27.34375 C 32.132812 -24.414062 33.703125 -20.59375 33.703125 -15.875 C 33.703125 -11.1875 32.113281 -7.367188 28.9375 -4.421875 C 25.757812 -1.472656 21.617188 0 16.515625 0 L 3.171875 0 Z M 11.25 -25.3125 L 11.25 -6.4375 L 17.015625 -6.4375 C 19.492188 -6.4375 21.523438 -7.304688 23.109375 -9.046875 C 24.691406 -10.785156 25.484375 -13.046875 25.484375 -15.828125 C 25.484375 -18.609375 24.648438 -20.882812 22.984375 -22.65625 C 21.328125 -24.425781 19.210938 -25.3125 16.640625 -25.3125 Z M 11.25 -25.3125 "/></g></g></g><g fill="#ffffff" fill-opacity="1"><g transform="translate(511.565531, 780.337116)"><g><path d="M 18.234375 -32.03125 C 23.160156 -32.03125 27.253906 -30.492188 30.515625 -27.421875 C 33.785156 -24.347656 35.421875 -20.515625 35.421875 -15.921875 C 35.421875 -11.296875 33.78125 -7.425781 30.5 -4.3125 C 27.21875 -1.195312 23.128906 0.359375 18.234375 0.359375 C 13.335938 0.359375 9.253906 -1.1875 5.984375 -4.28125 C 2.722656 -7.382812 1.09375 -11.265625 1.09375 -15.921875 C 1.09375 -20.546875 2.722656 -24.382812 5.984375 -27.4375 C 9.253906 -30.5 13.335938 -32.03125 18.234375 -32.03125 Z M 18.328125 -25.265625 C 15.847656 -25.265625 13.726562 -24.363281 11.96875 -22.5625 C 10.21875 -20.769531 9.34375 -18.539062 9.34375 -15.875 C 9.34375 -13.21875 10.226562 -10.972656 12 -9.140625 C 13.769531 -7.304688 15.878906 -6.390625 18.328125 -6.390625 C 20.773438 -6.390625 22.851562 -7.304688 24.5625 -9.140625 C 26.269531 -10.972656 27.125 -13.21875 27.125 -15.875 C 27.125 -18.539062 26.269531 -20.769531 24.5625 -22.5625 C 22.851562 -24.363281 20.773438 -25.265625 18.328125 -25.265625 Z M 18.328125 -25.265625 "/></g></g></g><g fill="#ffffff" fill-opacity="1"><g transform="translate(563.276095, 780.337116)"><g><path d="M 11.25 -6.765625 L 24.71875 -6.765625 L 24.71875 0 L 3.171875 0 L 3.171875 -31.75 L 11.25 -31.75 Z M 11.25 -6.765625 "/></g></g></g><g fill="#ffffff" fill-opacity="1"><g transform="translate(603.873411, 780.337116)"><g><path d="M 18.046875 -32.03125 C 20.410156 -32.03125 22.734375 -31.546875 25.015625 -30.578125 C 27.296875 -29.609375 29.238281 -28.304688 30.84375 -26.671875 L 26.171875 -21.140625 C 25.140625 -22.410156 23.90625 -23.414062 22.46875 -24.15625 C 21.039062 -24.894531 19.613281 -25.265625 18.1875 -25.265625 C 15.675781 -25.265625 13.570312 -24.378906 11.875 -22.609375 C 10.1875 -20.835938 9.34375 -18.65625 9.34375 -16.0625 C 9.34375 -13.394531 10.1875 -11.171875 11.875 -9.390625 C 13.570312 -7.609375 15.675781 -6.71875 18.1875 -6.71875 C 19.519531 -6.71875 20.90625 -7.046875 22.34375 -7.703125 C 23.78125 -8.367188 25.054688 -9.28125 26.171875 -10.4375 L 30.890625 -5.4375 C 29.160156 -3.6875 27.125 -2.28125 24.78125 -1.21875 C 22.445312 -0.164062 20.113281 0.359375 17.78125 0.359375 C 13 0.359375 9.019531 -1.195312 5.84375 -4.3125 C 2.675781 -7.425781 1.09375 -11.3125 1.09375 -15.96875 C 1.09375 -20.53125 2.707031 -24.347656 5.9375 -27.421875 C 9.175781 -30.492188 13.210938 -32.03125 18.046875 -32.03125 Z M 18.046875 -32.03125 "/></g></g></g><g fill="#ffffff" fill-opacity="1"><g transform="translate(650.458271, 780.337116)"><g><path d="M 11.25 0 L 3.171875 0 L 3.171875 -31.75 L 11.25 -31.75 Z M 11.25 0 "/></g></g></g></svg>