<?xml version="1.0" encoding="utf-8"?>
<!-- Generator: Adobe Illustrator 16.0.3, SVG Export Plug-In . SVG Version: 6.00 Build 0)  -->
<!DOCTYPE svg PUBLIC "-//W3C//DTD SVG 1.1//EN" "http://www.w3.org/Graphics/SVG/1.1/DTD/svg11.dtd">
<svg version="1.1" id="Capa_3" xmlns="http://www.w3.org/2000/svg" xmlns:xlink="http://www.w3.org/1999/xlink" x="0px" y="0px"
	 width="200px" height="72px" viewBox="0 0 200 72" enable-background="new 0 0 200 72" xml:space="preserve">
<path fill-rule="evenodd" clip-rule="evenodd" fill="#FFFFFF" stroke="#FFFFFF" stroke-width="0.25" stroke-miterlimit="10" d="
	M112.651,32.927c0.433,4.934-1.297,6.926-6.655,7.695c0.137,0.49,0.31,0.968,0.4,1.46c0.829,4.505-2.24,8.194-6.975,8.39
	c-0.669,0.026-1.341,0.035-2.009-0.002c-0.893-0.049-1.16-0.547-0.768-1.353c0.925-1.901,0.25-3.312-1.808-3.778
	c-0.466-0.104-0.931-0.212-1.396-0.321c-3.434-0.804-4.628-2.865-3.573-6.32c-0.593-0.081-1.173-0.204-1.757-0.233
	c-4.038-0.204-6.111-4.31-4.234-7.424c0.043-0.071,0.037-0.171,0.068-0.334c-0.711-0.093-1.398-0.164-2.079-0.273
	c-2.206-0.354-3.885-2.069-4.035-4.102c-0.192-2.59,1.017-4.575,3.32-5.257c0.566-0.167,0.755-0.455,0.908-0.933
	c1.59-5.013,3.217-10.014,4.765-15.04c0.313-1.019,0.754-1.411,1.861-1.401c6.285,0.055,12.569,0.043,18.855,0.007
	c0.891-0.005,1.292,0.291,1.554,1.136c1.613,5.204,3.268,10.394,4.94,15.578c0.121,0.375,0.419,0.803,0.755,0.979
	c2.326,1.222,3.731,3.633,3.425,6.01c-0.364,2.826-2.166,4.79-4.935,5.38C113.093,32.829,112.907,32.871,112.651,32.927z
	 M98.753,48.853c2.256,0.345,4.648-0.877,5.649-3c0.925-1.96,0.682-3.823-0.471-5.628c-0.194-0.305-0.341-0.854-0.194-1.099
	c0.148-0.246,0.688-0.331,1.063-0.347c0.603-0.025,1.209,0.088,1.814,0.104c3.3,0.087,5.375-2.802,4.255-5.912
	c-0.522-1.449-0.35-1.695,1.172-1.666c2.876,0.055,5.004-2.412,4.516-5.238c-0.396-2.285-2.218-3.672-4.872-3.675
	c-6.32-0.008-12.641-0.002-18.961-0.002c-3.224,0-6.448-0.01-9.672,0.005c-1.338,0.006-2.556,0.37-3.253,1.621
	c-1.263,2.268,0.092,4.658,2.827,4.944c2.03,0.213,4.072,0.307,6.108,0.458c5.44,0.406,10.881,0.811,16.321,1.223
	c1.289,0.098,2.576,0.223,3.898,0.339c-0.046,0.568-0.082,1.005-0.124,1.51c-0.429,0-0.805,0.025-1.177-0.004
	c-6.934-0.525-13.866-1.065-20.802-1.561c-0.399-0.028-0.943,0.187-1.213,0.479c-0.86,0.93-1.152,2.054-0.656,3.275
	c0.576,1.421,1.703,2.093,3.19,2.216c3.306,0.272,6.612,0.538,9.917,0.808c1.285,0.104,2.568,0.216,3.891,0.327
	c-0.072,0.6-0.124,1.032-0.183,1.521c-3.04-0.22-5.993-0.419-8.944-0.653c-1.156-0.09-1.765,0.398-1.833,1.575
	c-0.07,1.208,0.659,2.354,1.83,2.731c0.785,0.253,1.607,0.396,2.413,0.585c1.416,0.332,2.579,1.061,3.089,2.448
	C98.646,47.035,98.626,47.95,98.753,48.853z M98.824,5.336c0,5.164,0,10.277,0,15.412c2.033,0,4.012,0,6.042,0
	c-0.719-5.187-1.424-10.286-2.134-15.412C101.402,5.336,100.141,5.336,98.824,5.336z M88.417,5.317
	c-1.624,5.144-3.239,10.26-4.88,15.458c2.04,0,3.97,0,5.997,0c0.946-5.135,1.892-10.272,2.847-15.458
	C91.026,5.317,89.788,5.317,88.417,5.317z M104.345,5.29c0.722,5.23,1.429,10.356,2.135,15.48c2.034,0,3.96,0,5.891,0
	c0-0.121,0.016-0.188-0.002-0.246c-1.553-4.913-3.104-9.826-4.68-14.732c-0.067-0.208-0.369-0.468-0.575-0.48
	C106.23,5.259,105.342,5.29,104.345,5.29z M97.119,20.788c0-5.206,0-10.319,0-15.446c-1.071,0-2.078,0-3.127,0
	c-0.933,5.158-1.858,10.27-2.794,15.446C93.245,20.788,95.147,20.788,97.119,20.788z"/>
<path fill-rule="evenodd" clip-rule="evenodd" fill="#FFFFFF" d="M113.751,59.572c1.469,0,2.847-0.117,4.199,0.024
	c2.448,0.257,3.829,1.922,3.771,4.321c-0.052,2.167-1.651,3.809-3.984,3.964c-1.298,0.087-2.607,0.016-3.985,0.016
	C113.751,65.118,113.751,62.37,113.751,59.572z M115.879,61.3c0,1.665,0,3.237,0,4.857c1.221,0,2.467,0.313,3.246-0.925
	c0.609-0.97,0.616-2.002,0-2.97C118.358,61.058,117.144,61.21,115.879,61.3z"/>
<path fill-rule="evenodd" clip-rule="evenodd" fill="#FFFFFF" d="M78.549,67.982c-2.574-0.155-4.428-2.049-4.315-4.41
	c0.122-2.553,2.214-4.262,5.009-4.091c2.341,0.143,4.169,2.103,4.058,4.35C83.177,66.352,81.133,68.138,78.549,67.982z
	 M76.48,63.688c-0.013,1.406,0.996,2.499,2.31,2.497c1.275-0.003,2.278-1.056,2.302-2.418c0.024-1.387-1.021-2.519-2.319-2.512
	C77.502,61.263,76.494,62.333,76.48,63.688z"/>
<path fill-rule="evenodd" clip-rule="evenodd" fill="#FFFFFF" d="M130.815,59.474c2.624-0.003,4.532,1.786,4.532,4.253
	c0,2.413-1.901,4.241-4.448,4.273c-2.625,0.033-4.615-1.841-4.595-4.328C126.325,61.268,128.248,59.478,130.815,59.474z
	 M133.154,63.75c0.011-1.386-1.053-2.518-2.345-2.494c-1.263,0.023-2.271,1.112-2.274,2.457c-0.004,1.379,0.962,2.443,2.241,2.473
	C132.109,66.217,133.142,65.159,133.154,63.75z"/>
<path fill-rule="evenodd" clip-rule="evenodd" fill="#FFFFFF" d="M32.466,65.688c0,0.729,0,1.42,0,2.172c-0.717,0-1.366,0-2.073,0
	c0-2.746,0-5.476,0-8.456c1.697,0.116,3.412,0.106,5.079,0.387c1.256,0.211,1.929,1.418,1.886,2.76
	c-0.048,1.501-0.831,2.576-2.204,2.854C34.319,65.574,33.453,65.59,32.466,65.688z M32.506,63.917
	c0.979-0.161,2.052,0.326,2.607-0.713c0.198-0.37,0.186-1.077-0.047-1.408c-0.635-0.904-1.637-0.53-2.561-0.536
	C32.506,62.146,32.506,62.961,32.506,63.917z"/>
<path fill-rule="evenodd" clip-rule="evenodd" fill="#FFFFFF" d="M157.241,65.235c0.419,0.379,0.84,0.759,1.255,1.134
	c-1.79,1.995-4.752,2.159-6.564,0.45c-1.69-1.596-1.761-4.34-0.153-6.013c1.739-1.81,4.771-1.794,6.662,0.101
	c-0.366,0.444-0.739,0.896-0.98,1.189c-0.961-0.294-1.791-0.676-2.649-0.757c-0.436-0.043-1.011,0.367-1.37,0.726
	c-0.824,0.825-0.798,2.348-0.044,3.244C154.274,66.354,155.48,66.332,157.241,65.235z"/>
<path fill-rule="evenodd" clip-rule="evenodd" fill="#FFFFFF" d="M56.369,65.216c0.383,0.402,0.774,0.813,1.165,1.225
	c-1.87,1.952-4.854,2.075-6.607,0.303c-1.646-1.664-1.631-4.429,0.033-6.028c1.821-1.75,4.851-1.666,6.548,0.217
	c-0.378,0.454-0.762,0.912-1.142,1.368c-1.697-1.253-2.816-1.343-3.785-0.34c-0.804,0.835-0.881,2.332-0.167,3.259
	C53.281,66.344,54.472,66.353,56.369,65.216z"/>
<path fill-rule="evenodd" clip-rule="evenodd" fill="#FFFFFF" d="M69.798,60.928c-0.407,0.48-0.774,0.913-1.137,1.34
	c-1.792-1.229-2.927-1.288-3.868-0.241c-0.78,0.869-0.802,2.346-0.049,3.257c0.898,1.087,2.105,1.071,3.887-0.086
	c0.38,0.397,0.77,0.806,1.156,1.209c-1.607,1.918-4.565,2.116-6.436,0.472c-1.725-1.517-1.848-4.322-0.263-6.01
	C64.868,58.976,67.889,58.977,69.798,60.928z"/>
<path fill-rule="evenodd" clip-rule="evenodd" fill="#FFFFFF" d="M90.537,66.14c1.26,0,2.364,0,3.527,0c0,0.611,0,1.134,0,1.72
	c-1.844,0-3.68,0-5.593,0c0-2.738,0-5.487,0-8.3c0.674,0,1.321,0,2.066,0C90.537,61.733,90.537,63.857,90.537,66.14z"/>
<path fill-rule="evenodd" clip-rule="evenodd" fill="#FFFFFF" d="M140.536,59.522c0.705,0,1.308,0,2.026,0c0,2.173,0,4.322,0,6.59
	c1.241,0,2.373,0,3.568,0c0,0.641,0,1.161,0,1.747c-1.857,0-3.692,0-5.595,0C140.536,65.111,140.536,62.357,140.536,59.522z"/>
<path fill-rule="evenodd" clip-rule="evenodd" fill="#FFFFFF" d="M42.475,67.853c0-2.79,0-5.513,0-8.291c0.697,0,1.346,0,2.054,0
	c0,2.775,0,5.499,0,8.291C43.874,67.853,43.222,67.853,42.475,67.853z"/>
<path fill-rule="evenodd" clip-rule="evenodd" fill="#FFFFFF" d="M101.192,67.886c-0.706,0-1.332,0-2.025,0c0-2.771,0-5.518,0-8.321
	c0.677,0,1.324,0,2.025,0C101.192,62.34,101.192,65.063,101.192,67.886z"/>
<path fill-rule="evenodd" clip-rule="evenodd" fill="#FFFFFF" d="M165.502,67.871c-0.708,0-1.335,0-2.008,0c0-2.772,0-5.495,0-8.292
	c0.658,0,1.304,0,2.008,0C165.502,62.354,165.502,65.121,165.502,67.871z"/>
<path fill-rule="evenodd" clip-rule="evenodd" fill="#FFFFFF" stroke="#FFFFFF" stroke-miterlimit="10" d="M111.623,50.645
	c-0.948-0.908-1.719-1.606-2.443-2.352c-0.552-0.568-0.628-1.239-0.149-1.899c0.476-0.657,1.145-0.8,1.854-0.475
	c0.392,0.179,0.654,0.248,1.084,0.023c0.681-0.354,1.408-0.227,1.858,0.44c0.426,0.633,0.393,1.32-0.14,1.924
	C113.017,49.069,112.344,49.829,111.623,50.645z"/>
<path fill-rule="evenodd" clip-rule="evenodd" fill="#FFFFFF" stroke="#FFFFFF" stroke-miterlimit="10" d="M108.169,23.986
	c0.491,0,0.947,0,1.453,0c0,0.516,0,0.977,0,1.503c-0.475,0-0.931,0-1.453,0C108.169,24.998,108.169,24.517,108.169,23.986z"/>
<path fill-rule="evenodd" clip-rule="evenodd" fill="#FFFFFF" stroke="#FFFFFF" stroke-miterlimit="10" d="M93.383,26.284
	c0-0.505,0-0.963,0-1.494c0.463,0,0.917,0,1.443,0c0,0.481,0,0.959,0,1.494C94.347,26.284,93.893,26.284,93.383,26.284z"/>
<path fill-rule="evenodd" clip-rule="evenodd" fill="#FFFFFF" stroke="#FFFFFF" stroke-miterlimit="10" d="M101.142,28.607
	c0-0.521,0-0.977,0-1.474c0.521,0,0.981,0,1.501,0c0,0.503,0,0.959,0,1.474C102.151,28.607,101.693,28.607,101.142,28.607z"/>
<path fill-rule="evenodd" clip-rule="evenodd" fill="#FFFFFF" stroke="#FFFFFF" stroke-miterlimit="10" d="M112.032,27.144
	c0.505,0,0.964,0,1.496,0c0,0.465,0,0.919,0,1.448c-0.481,0-0.96,0-1.496,0C112.032,28.116,112.032,27.66,112.032,27.144z"/>
<path fill-rule="evenodd" clip-rule="evenodd" fill="#FFFFFF" stroke="#FFFFFF" stroke-miterlimit="10" d="M96.366,36.417
	c-0.47,0-0.924,0-1.434,0c0-0.5,0-0.96,0-1.495c0.454,0,0.907,0,1.434,0C96.366,35.397,96.366,35.877,96.366,36.417z"/>
<path fill-rule="evenodd" clip-rule="evenodd" fill="#FFFFFF" stroke="#FFFFFF" stroke-miterlimit="10" d="M106.61,35.62
	c0-0.591,0-1.022,0-1.503c0.505,0,0.96,0,1.463,0c0,0.513,0,0.974,0,1.503C107.581,35.62,107.101,35.62,106.61,35.62z"/>
<path fill-rule="evenodd" clip-rule="evenodd" fill="#FFFFFF" stroke="#FFFFFF" stroke-miterlimit="10" d="M101.91,44.961
	c0-0.536,0-0.969,0-1.469c0.495,0,0.954,0,1.494,0c0,0.456,0,0.934,0,1.469C102.916,44.961,102.456,44.961,101.91,44.961z"/>
<path fill-rule="evenodd" clip-rule="evenodd" fill="#FFFFFF" stroke="#FFFFFF" stroke-miterlimit="10" d="M87.869,34.048
	c0-0.541,0-0.974,0-1.472c0.49,0,0.947,0,1.492,0c0,0.458,0,0.937,0,1.472C88.88,34.048,88.42,34.048,87.869,34.048z"/>
<path fill-rule="evenodd" clip-rule="evenodd" fill="#FFFFFF" stroke="#FFFFFF" stroke-miterlimit="10" d="M84.673,27.873
	c-0.497,0-0.908,0-1.399,0c0-0.501,0-0.983,0-1.515c0.478,0,0.935,0,1.399,0C84.673,26.9,84.673,27.382,84.673,27.873z"/>
<path fill-rule="evenodd" clip-rule="evenodd" fill="#FFFFFF" stroke="#FFFFFF" stroke-miterlimit="10" d="M97.264,41.145
	c0.481,0,0.916,0,1.427,0c0,0.471,0,0.928,0,1.46c-0.436,0-0.895,0-1.427,0C97.264,42.167,97.264,41.709,97.264,41.145z"/>
</svg>
